<svg xmlns="http://www.w3.org/2000/svg" width="28.088" height="41" viewBox="0 0 28.088 41">
  <g id="lab-microscope" transform="translate(-152.95 -2)">
    <g id="Group_6863" data-name="Group 6863" transform="translate(152.95 2)">
      <path id="Path_14351" data-name="Path 14351" d="M169.393,593.281a.847.847,0,0,0,.844-.844v-.393a.847.847,0,0,0-.844-.844h-14.1a.847.847,0,0,0-.844.844v.393a.847.847,0,0,0,.844.844Z" transform="translate(-154.387 -566.245)" fill="#eb616a"/>
      <path id="Path_14352" data-name="Path 14352" d="M229.839,9.633a14.406,14.406,0,0,0-4.588-3.094l-.008,0a1.255,1.255,0,0,0-1.541.477l-.979,1.524a3.132,3.132,0,0,0-.777-.156c-.08,0-.165-.008-.249-.008a3.166,3.166,0,0,0-.667.072l1.726-2.693.536-.836a1.264,1.264,0,0,0-.384-1.748L218.294.2a1.273,1.273,0,0,0-1.752.384l-8.024,12.511a1.264,1.264,0,0,0,.384,1.748l.874.561-.4.621-.4.621-.249.388a1.264,1.264,0,0,0,.384,1.748l.751.481a1.264,1.264,0,0,0,1.748-.384l.249-.388.4-.621.4-.621.861.553a1.273,1.273,0,0,0,1.752-.384l3.292-5.137a3.055,3.055,0,0,0,.329.857,3.224,3.224,0,0,0,2.9,1.646,3.217,3.217,0,0,0,2.929-4.3A10.643,10.643,0,0,1,222.76,30a1.265,1.265,0,0,1-.376.055h-4.154a1.265,1.265,0,0,1-1.266-1.266V28.5h-6.049v5.7c.131-.008.266-.013.4-.013h18.159a3.087,3.087,0,0,0,1.469-5.382,14.407,14.407,0,0,0-1.1-19.172Zm-8.143,3.1a1.15,1.15,0,0,1-1.114-.861,1.132,1.132,0,0,1-.038-.3,1.152,1.152,0,0,1,.958-1.135,1.021,1.021,0,0,1,.2-.017,1.154,1.154,0,1,1,0,2.309Zm7.678,19.4a1.052,1.052,0,0,1-.447.1,1.077,1.077,0,0,1-1.076-1.081,1.08,1.08,0,0,1,1.081-1.081,1.051,1.051,0,0,1,.447.1,1.269,1.269,0,0,1,.207.122,1.079,1.079,0,0,1,.426.857A1.093,1.093,0,0,1,229.375,32.131Z" transform="translate(-205.981)" fill="#eb616a"/>
      <path id="Path_14353" data-name="Path 14353" d="M157.885,845.013a5.332,5.332,0,0,0-4.935,5.319h22.127a1.265,1.265,0,0,0,1.266-1.266V845H158.281C158.146,845,158.015,845,157.885,845.013Z" transform="translate(-152.95 -809.331)" fill="#eb616a"/>
    </g>
  </g>
</svg>
