<svg xmlns="http://www.w3.org/2000/svg" width="28.995" height="38" viewBox="0 0 28.995 38">
  <path id="Subtraction_14" data-name="Subtraction 14" d="M25.43,38H3.563A3.536,3.536,0,0,1,0,34.5V10.573H7.208a3.536,3.536,0,0,0,3.564-3.5V0H25.43a3.536,3.536,0,0,1,3.564,3.5v31A3.536,3.536,0,0,1,25.43,38ZM9.637,32.33a1.113,1.113,0,1,0,0,2.227h9.719a1.113,1.113,0,1,0,0-2.227Zm0-9.54a1.136,1.136,0,0,0-.8.326,1.1,1.1,0,0,0,0,1.575l4.86,4.77a1.15,1.15,0,0,0,1.6,0l4.859-4.77a1.1,1.1,0,0,0,0-1.575,1.149,1.149,0,0,0-1.6,0l-2.923,2.87V17.941a1.135,1.135,0,0,0-2.269,0v8.045l-2.923-2.87A1.136,1.136,0,0,0,9.637,22.79ZM7.208,8.348H0v-.08a1.1,1.1,0,0,1,.332-.787L7.62.326A1.152,1.152,0,0,1,8.422,0H8.5V7.075A1.285,1.285,0,0,1,7.208,8.348Z" transform="translate(0.001)" fill="#eb616a"/>
</svg>
