<svg xmlns="http://www.w3.org/2000/svg" width="36.304" height="41.208" viewBox="0 0 36.304 41.208">
  <g id="prescription" transform="translate(-30.462)">
    <path id="Path_14325" data-name="Path 14325" d="M229.084,276.023a3.626,3.626,0,0,0-3.622,3.622v4.427h7.244v-4.427A3.626,3.626,0,0,0,229.084,276.023Z" transform="translate(-179.306 -253.808)" fill="#eb616a"/>
    <path id="Path_14326" data-name="Path 14326" d="M225.462,409.655a3.622,3.622,0,1,0,7.244,0v-3.622h-7.244Z" transform="translate(-179.306 -373.354)" fill="#eb616a"/>
    <path id="Path_14327" data-name="Path 14327" d="M61.851,24.593V9.659H53.4a1.207,1.207,0,0,1-1.207-1.207V0H31.669a1.207,1.207,0,0,0-1.207,1.207v36.3a1.207,1.207,0,0,0,1.207,1.207H44.247a6,6,0,0,1-.506-2.415V25.837a6.035,6.035,0,0,1,12.021-.773A9.75,9.75,0,0,1,61.851,24.593ZM41.327,31.472H36.5a1.207,1.207,0,0,1,0-2.415h4.829a1.207,1.207,0,0,1,0,2.415Zm2.455-9.618H36.539a1.207,1.207,0,0,1,0-2.415h7.244a1.207,1.207,0,0,1,0,2.415Zm4.789-4.87H36.5a1.207,1.207,0,0,1,0-2.415H48.571a1.207,1.207,0,0,1,0,2.415Zm0-4.829H36.5a1.207,1.207,0,0,1,0-2.415H48.571a1.207,1.207,0,0,1,0,2.415Z" transform="translate(0)" fill="#eb616a"/>
    <path id="Path_14328" data-name="Path 14328" d="M330.462,8.788v6.537H337Z" transform="translate(-275.855 -8.081)" fill="#eb616a"/>
    <path id="Path_14329" data-name="Path 14329" d="M345.462,333.09v8.222l7.9-7.9A7.265,7.265,0,0,0,345.462,333.09Z" transform="translate(-289.648 -305.35)" fill="#eb616a"/>
    <path id="Path_14330" data-name="Path 14330" d="M349.438,369.9,339.34,380a7.242,7.242,0,0,0,10.1-10.1Z" transform="translate(-284.018 -340.127)" fill="#eb616a"/>
  </g>
</svg>
